<?xml version="1.0" encoding="utf-8"?>
<!-- Svg Vector Icons : http://www.onlinewebfonts.com/icon -->
<!DOCTYPE svg PUBLIC "-//W3C//DTD SVG 1.1//EN" "http://www.w3.org/Graphics/SVG/1.1/DTD/svg11.dtd">
<svg version="1.1" xmlns="http://www.w3.org/2000/svg" xmlns:xlink="http://www.w3.org/1999/xlink" x="0px" y="0px" viewBox="0 0 1000 1000" enable-background="new 0 0 1000 1000" xml:space="preserve">
	<metadata> Svg Vector Icons : http://www.onlinewebfonts.com/icon </metadata>
	<g>
		<g transform="translate(0.000000,512.000000) scale(0.100000,-0.100000)">
			<path style="fill:#f00;" d="M4981.5,4999.6c-226-84.3-361.9-268.1-361.9-488.3c0-55.5-19.2-124.5-51.7-191.5c-61.3-124.5-70.8-312.1-21.1-427c82.3-191.5,283.4-323.6,490.2-323.6c68.9,0,143.6-11.5,174.3-28.7c243.2-124.5,543.8-38.3,683.6,197.2c145.5,241.3,82.4,530.4-153.2,697c-74.7,51.7-84.2,67-93.8,149.4c-19.1,166.6-114.9,298.7-270,377.2C5261,5020.7,5082.9,5037.9,4981.5,4999.6z M5289.8,4739.2c26.8-19.2,68.9-63.2,91.9-99.6c46-65.1,47.9-84.3,19.2-293c-3.8-28.7,9.6-40.2,67-53.6c180-38.3,262.4-130.2,262.4-298.7c0-91.9-7.7-109.2-74.7-181.9c-72.8-78.5-78.5-80.4-197.2-80.4c-103.4,0-130.2,7.7-191.5,53.6c-65.1,49.8-74.7,51.7-145.5,30.6c-193.4-57.5-367.7,70.9-367.7,270c0,88.1,21.1,139.8,88.1,210.6c40.2,44,42.1,55.5,23,118.7c-28.7,93.8-5.7,195.3,65.1,273.8C5023.6,4796.6,5178.7,4817.7,5289.8,4739.2z" />
			<path style="fill:#f00;" d="M2673.9,2793.6c-224-47.9-450-185.8-643.4-388.7c-136-143.6-155.1-203-84.3-266.2c28.7-24.9,63.2-44,78.5-44c15.3,0,99.6,72.8,189.6,160.8c381.1,377.2,790.9,428.9,1235.1,155.1c76.6-47.9,158.9-86.2,181.9-86.2c57.5,0,107.2,57.4,107.2,120.6c0,63.2-97.7,139.8-316,245.1C3168,2814.7,2922.9,2847.2,2673.9,2793.6z" />
			<path style="fill:#f0f0f0;" d="M4677,2537c-164.7-53.6-306.4-195.3-352.4-348.5c-17.2-55.5-30.6-116.8-30.6-136c0-30.6-7.7-34.5-42.1-23c-84.2,28.7-260.4,13.4-350.4-30.6c-107.2-51.7-245.1-203-273.8-302.6c-13.4-40.2-23-120.6-23-176.2v-99.6l-68.9,11.5c-170.4,32.6-406-74.7-505.5-229.8c-95.7-153.2-113-319.8-46-492.1c7.7-21.1-9.6-34.5-59.4-51.7c-212.6-70.8-298.7-308.3-176.2-494C2806.1,78.2,2921,26.5,3055,26.5c59.4,0,109.2-3.8,109.2-9.6s155.1-940.2,344.7-2077.7c189.6-1137.5,344.7-2075.8,344.7-2087.3c0-9.6-21.1-19.2-47.9-19.2s-82.3-17.2-122.6-38.3c-214.5-107.2-214.5-429,0-536.2c70.8-38.3,122.6-38.3,2152.4-38.3s2081.5,0,2152.4,38.3c212.5,107.2,212.5,429,0,536.2c-40.2,21.1-95.8,38.3-122.6,38.3s-47.9,9.6-47.9,21.1c0,11.5,155.1,951.7,344.7,2087.3C8351.8-923.3,8506.9,9.3,8506.9,15c0,5.7,46,11.5,103.4,11.5c57.4,0,128.3,9.6,158.9,21.1c147.5,55.5,243.2,237.5,199.1,381.1c-28.7,99.6-103.4,183.8-185.7,214.5c-47.9,17.2-63.2,32.5-53.6,53.6c40.2,103.4,51.7,231.7,28.7,333.2c-57.5,260.4-333.2,448.1-584.1,398.3c-53.6-11.5-111.1-24.9-128.3-32.6c-24.9-9.6-28.7,3.8-21.1,93.8c26.8,325.5-281.5,609-597.5,549.6c-91.9-17.2-107.2-5.8-107.2,80.4c0,76.6-90,235.5-172.4,306.4c-153.2,130.2-383,162.8-559.2,78.5c-68.9-32.5-74.7-32.5-153.2,3.8c-116.8,51.7-342.8,49.8-446.2-5.8c-42.1-23-97.7-63.2-122.6-90l-45.9-47.9l-76.6,65.1c-145.5,126.4-358.1,158.9-532.3,82.3c-93.8-40.2-97.7-40.2-166.6-5.7C4966.1,2542.7,4751.7,2561.9,4677,2537z M4885.7,2312.9c32.6-7.7,97.7-46,145.5-88.1l86.2-76.6l84.3,76.6c105.3,97.7,191.5,116.8,308.3,70.9c97.7-36.4,160.9-111.1,176.2-212.6c11.5-67,9.6-68.9-34.5-53.6c-70.8,23-250.9,15.3-325.5-17.2c-38.3-15.3-99.6-55.5-137.9-90l-70.8-61.3l-59.4,49.8c-130.2,109.2-285.3,155.1-432.8,128.3c-49.8-9.6-93.8-15.3-95.8-13.4c-13.4,13.4,38.3,149.4,74.7,193.4C4671.2,2305.3,4765.1,2335.9,4885.7,2312.9z M6312.3,2305.3c26.8-9.6,82.3-49.8,126.4-88.1l76.6-68.9l84.3,76.6c105.3,97.7,191.5,116.8,308.3,70.9c97.7-36.4,160.9-111.1,176.2-212.6c11.5-67,9.6-68.9-34.5-53.6c-72.8,23-248.9,13.4-327.5-19.2c-40.2-17.2-101.5-57.5-139.8-90l-68.9-61.3l-51.7,47.9c-113,105.3-304.5,162.8-440.4,132.1c-44-9.6-84.3-11.5-88.1-3.8c-13.4,19.2,40.2,155.1,78.5,197.2C6082.5,2312.9,6212.8,2343.6,6312.3,2305.3z M7051.5,1776.8c26.8-13.4,72.8-49.8,103.4-82.3l57.5-59.4l67,65.1c38.3,34.5,88.1,74.7,111.1,86.2c68.9,34.5,195.3,24.9,270-21.1c82.3-51.7,145.5-183.8,130.2-271.9c-11.5-61.3-11.5-61.3-132.1-63.2c-132.1,0-229.8-34.5-338.9-120.6c-70.9-55.5-70.9-55.5-105.3-19.2c-95.8,105.3-321.7,164.7-492.1,128.3c-70.9-15.3-70.9-13.4-84.2,55.5c-26.8,139.8,63.2,294.9,191.5,331.3C6896.4,1824.6,6980.6,1813.1,7051.5,1776.8z M4242.3,1786.3c23-11.5,72.8-51.7,111.1-86.2l67-65.1l57.5,59.4c109.1,114.9,233.6,143.6,363.8,82.3c99.6-47.9,176.2-199.2,151.3-300.6c-11.5-42.1-23-46-120.6-44c-136,0-229.8-30.6-338.9-113c-72.8-55.5-86.2-61.3-107.2-36.4c-86.2,103.4-316,174.3-465.3,141.7c-111.1-23-126.4-11.5-126.4,105.3c0,151.3,128.3,277.7,283.4,277.7C4163.8,1807.4,4219.3,1797.8,4242.3,1786.3z M5649.8,1780.6c28.7-15.3,76.6-53.6,107.2-86.2l55.5-59.4l82.3,76.6c46,42.1,105.3,80.4,132.1,88.1c76.6,19.1,193.4-1.9,254.7-47.9c70.9-49.8,126.4-180,111.1-260.4c-11.5-59.4-13.4-59.4-132.1-61.3c-132.1,0-229.8-34.5-339-120.6c-63.2-49.8-74.7-53.6-97.7-26.8c-86.2,103.4-314.1,174.3-465.3,141.7c-109.1-23-126.4-11.5-126.4,95.7C5232.3,1728.9,5465.9,1876.3,5649.8,1780.6z M3616.1,1154.4c36.4-21.1,82.3-61.3,103.4-88.1l38.3-49.8l76.6,78.5c86.2,90,137.9,109.2,260.4,93.8c203-23,306.4-266.2,189.6-440.4l-49.8-70.8h-469.2h-469.2l-47.9,51.7c-57.4,63.2-72.8,116.8-59.4,227.9c9.6,90,78.5,185.7,157,218.3C3418.9,1206.1,3549.1,1196.5,3616.1,1154.4z M5033.2,1141c40.2-30.6,86.2-68.9,101.5-88.1c24.9-28.7,32.5-26.8,101.5,44c84.2,88.1,134,107.2,258.5,91.9c67-7.7,103.4-24.9,155.1-76.6c59.4-59.4,68.9-82.3,76.6-180c5.7-93.8,0-122.6-38.3-178.1l-46-67l-463.4-5.7c-277.7-1.9-478.7,3.8-499.8,13.4c-19.2,11.5-49.8,49.8-67,86.2C4483.6,1051,4791.9,1315.2,5033.2,1141z M6431.1,1141c40.2-30.6,86.2-68.9,101.5-88.1c24.9-30.6,34.5-26.8,111.1,49.8c82.3,80.4,88.1,82.3,206.8,82.3c116.8,0,128.3-3.8,193.4-68.9c111.1-111.1,120.7-266.2,24.9-388.7l-38.3-49.8h-467.3c-459.6,0-469.2,0-509.4,44C5822.1,966.7,6157.2,1340.2,6431.1,1141z M7829,1141c40.2-30.6,86.2-68.9,101.5-88.1c24.9-30.6,34.5-26.8,109.1,47.9c63.2,63.2,97.7,80.4,166.6,88.1c116.8,13.4,172.3-1.9,241.3-70.9c107.2-107.2,114.9-268.1,19.2-390.6l-38.3-49.8H7963c-457.7,0-465.3,0-503.6,44c-59.4,65.1-82.3,118.7-82.3,199.2C7377,1144.8,7645.1,1275,7829,1141z M8717.5,399.9c38.3-46,7.7-120.6-51.7-132.1c-90-17.2-5639.5-9.6-5687.4,9.6c-47.9,17.2-59.4,90-21.1,128.3c17.2,17.2,683.6,23,2880,23C8342.2,428.6,8696.4,424.8,8717.5,399.9z M3978-34.8c9.6-63.2,469.2-4090.3,469.2-4117.1c0-9.6-82.3-15.3-181.9-15.3s-181.9,3.8-181.9,9.6c0,5.7-155.1,940.2-344.7,2077.7C3549.1-942.5,3394-4.1,3394,7.4c0,11.5,105.3,19.1,287.2,19.1h285.3L3978-34.8z M4772.7,3.5c1.9-13.4,21.1-340.8,46-727.7l44.1-704.7l-63.2-122.5c-84.3-166.6-114.9-361.9-88.1-541.9c24.9-151.3,93.8-321.7,172.3-425.1l51.7-68.9l47.9-785.1l47.9-785.1l-170.4-5.7c-93.8-1.9-174.3-1.9-178.1,3.8c-5.7,5.7-482.6,4109.5-484.5,4172.6c0,7.7,130.2,13.4,287.2,13.4C4701.9,26.5,4772.7,20.8,4772.7,3.5z M6666.6-44.4c-1.9-187.7-67-1116.4-78.5-1126c-7.7-7.7-51.7,13.4-101.5,47.9c-47.9,34.5-158.9,88.1-245.1,120.6c-143.6,53.6-176.2,59.4-396.4,59.4c-201.1,1.9-260.4-5.7-373.4-42.1c-134-44-275.8-116.8-340.9-172.3c-17.2-15.3-38.3-23-46-15.3c-13.4,13.4-78.5,896.2-80.4,1108.7l-1.9,90h833h833L6666.6-44.4z M7463.2-53.9c-5.7-45.9-109.2-951.7-229.8-2016.4c-120.6-1064.7-224.1-1970.5-229.8-2014.5l-11.5-82.3h-181.9c-178.1,0-180,0-172.4,44.1c5.7,23,28.7,373.4,51.7,779.4l42.1,737.3l72.8,109.2c187.7,289.2,212.6,635.8,67,944.1l-65.1,134l45.9,699c24.9,384.9,44.1,710.5,46,723.8c0,17.2,70.9,23,289.2,23h287.2L7463.2-53.9z M8277.1,3.5c0-11.5-155.1-947.9-344.7-2079.6c-189.6-1131.7-344.7-2064.3-344.7-2073.9c0-9.6-82.3-17.2-181.9-17.2c-109.2,0-181.9,7.7-181.9,19.2c0,34.5,457.7,4048.2,469.2,4113.3l11.5,61.3h285.3C8194.7,26.5,8277.1,20.8,8277.1,3.5z M6145.7-1189.5c239.4-80.4,398.3-204.9,513.2-400.2c248.9-423.2,26.8-947.9-484.5-1141.3c-136-53.6-392.6-70.9-545.8-40.2c-139.8,30.6-348.5,134-455.8,229.8c-178.1,157-279.6,406-260.4,639.6c28.7,333.2,296.8,631.9,658.7,731.5C5732.1-1126.3,5981-1133.9,6145.7-1189.5z M5586.6-2970.4c262.3-55.5,520.9-23,769.8,93.8c84.2,40.2,139.8,57.5,139.8,44c0-13.4-17.2-289.2-38.3-616.6c-21.1-325.5-38.3-622.4-38.3-654.9v-63.2h-584.1h-584.1v63.2c0,32.6-17.2,323.6-38.3,645.3s-38.3,599.4-38.3,616.6c0,26.8,21.1,23,139.8-34.5C5391.2-2912.9,5513.8-2955.1,5586.6-2970.4z M7917.1-4410.4c42.1-38.3,44-78.5,1.9-124.5c-28.7-32.6-118.7-34.5-2079.6-34.5c-1880.5,0-2052.8,1.9-2085.4,32.6c-42.1,38.3-44,88.1-3.8,128.3c26.8,26.8,241.3,30.6,2079.6,30.6C7712.2-4377.9,7884.5-4379.8,7917.1-4410.4z" />
			<path style="fill:#f00;" d="M3183.3,2322.5c-262.3-44-536.2-260.4-536.2-427c0-63.2,47.9-107.2,114.9-107.2c42.1,0,67,19.2,122.5,95.7c86.2,118.7,222.1,191.5,383,204.9c153.2,13.4,203,44,203,130.2c0,46-13.4,74.7-42.1,93.8C3380.6,2347.4,3340.4,2347.4,3183.3,2322.5z" />
			<path style="fill:#f00;" d="M1373.7,1763.4c-170.4-67-275.8-181.9-327.5-350.4c-34.5-114.9-34.5-168.5,3.8-293c30.6-109.2,147.4-252.8,241.3-300.6c28.7-15.3,70.8-61.3,90-99.6c91.9-180,279.6-281.5,496-268.1c160.9,7.7,285.3,76.6,381.1,206.8c67,95.8,90,118.7,220.2,231.7c118.7,103.4,174.2,222.1,174.2,381.1c0,147.5-32.5,233.6-134,344.7c-147.4,164.7-404,222.1-597.5,132.1c-82.4-36.4-88.1-36.4-153.2-3.8C1683.9,1784.4,1454.1,1795.9,1373.7,1763.4z M1657.1,1537.4c23-11.5,74.7-51.7,114.9-90l70.9-68.9l72.8,68.9c90,86.2,137.9,111.1,218.3,111.1c151.3,0,283.4-130.2,283.4-281.5c0-139.8-76.6-239.4-218.3-285.3c-38.3-13.4-61.3-38.3-78.5-90c-36.4-107.2-76.6-157-149.4-193.4c-172.3-80.4-361.9,9.6-409.8,199.2c-13.4,51.7-30.6,68.9-91.9,90c-134,45.9-201.1,137.9-201.1,279.6C1268.4,1470.4,1492.4,1621.6,1657.1,1537.4z" />
		</g>
	</g>
</svg>